<svg width="245" height="79" viewBox="0 0 245 79" fill="none" xmlns="http://www.w3.org/2000/svg">
<g filter="url(#filter0_i_1057_8975)">
<path d="M20.6995 69.7805H30.6659V65.939C29.516 65.939 28.366 64.5561 28.366 63.6341H13.033C10.8609 63.6341 6.43985 62.2512 6.13319 56.7195V51.3414H2.29995C1.14997 51.3414 0 50.4195 0 48.2683C0 46.117 1.5333 45.1951 3.06659 45.1951V35.9756C3.06659 34.9512 3.83324 32.9024 6.89984 32.9024H11.4997C14.5663 32.9024 15.333 35.2073 15.333 35.9756V45.1951C16.3552 45.1951 18.3996 45.8097 18.3996 48.2683C18.3996 50.7268 16.3552 51.3414 15.333 51.3414H12.2664V54.4146C12.1386 55.439 12.573 57.4878 15.333 57.4878H28.366C28.366 56.7195 29.516 55.1829 30.6659 55.1829V51.3414H27.5994C26.5772 51.2134 24.5328 50.4195 24.5328 48.2683C24.5328 47.1158 24.8394 45.1951 27.5994 45.1951V32.9024C27.5994 30.5975 29.1326 29.8292 33.7325 29.8292C37.9491 29.8292 39.8657 30.5975 39.8657 32.9024V45.1951C42.6257 45.1951 42.9323 47.1158 42.9323 48.2683C42.9323 50.7268 40.8879 51.3414 39.8657 51.3414H36.7991V55.1829C37.5658 55.1829 39.0991 56.7195 39.0991 57.4878H50.5988C52.1321 57.4878 55.1987 56.8731 55.1987 54.4146V51.3414H52.1321C51.2377 51.3414 49.0655 50.9573 49.0655 48.2683C49.0655 45.7906 50.9821 45.1951 52.1321 45.1951V38.2805C52.1321 36.7439 54.4321 35.9756 58.2653 35.9756C62.2636 35.9756 64.3985 36.7439 64.3985 38.2805V45.1951C65.4207 45.1951 67.4651 45.8097 67.4651 48.2683C67.4651 50.7268 65.4207 51.3414 64.3985 51.3414H61.3319V56.7195C61.3319 62.5585 55.9654 63.6341 52.8988 63.6341H39.0991C39.0991 64.8634 37.9491 65.939 36.7991 65.939V69.7805H46.7656C49.0655 69.7805 52.1321 70.5488 52.1321 74.3902C52.1321 78.6158 48.9122 79 46.7656 79H20.6995C18.7828 79 15.333 77.8475 15.333 74.3902C15.3329 70.9958 18.3995 69.7805 20.6995 69.7805Z" fill="#11141B"/>
<path d="M6.13319 25.9878C6.13319 23.6829 7.66649 20.6097 9.19978 20.6097C10.7331 20.6097 12.2664 23.6829 12.2664 25.9878C12.2664 28.2927 11.4997 29.8292 9.19978 29.8292C6.89984 29.8292 6.13319 28.2927 6.13319 25.9878Z" fill="#11141B"/>
<path d="M30.6659 22.9146C30.6659 20.6097 32.1992 17.5366 33.7325 17.5366C35.2658 17.5366 36.7991 20.6097 36.7991 22.9146C36.7991 24.8358 35.6496 26.7561 33.7325 26.7561C31.8155 26.7561 30.6659 24.8358 30.6659 22.9146Z" fill="#11141B"/>
<path d="M55.1987 29.8292C55.1987 27.1402 56.732 23.6829 58.2653 23.6829C59.7986 23.6829 61.3319 26.7561 61.3319 29.8292C61.3319 31.5265 59.9589 32.9024 58.2653 32.9024C56.5717 32.9024 55.1987 31.5265 55.1987 29.8292Z" fill="#11141B"/>
</g>
<g filter="url(#filter1_i_1057_8975)">
<path fill-rule="evenodd" clip-rule="evenodd" d="M122.499 79H94.5395C92.0432 79 87.5499 77.2006 87.5499 72.0023C87.5499 69.0033 89.1476 66.2043 93.541 65.0047C95.7496 64.4016 96.5366 63.0054 94.0403 59.0067C91.3776 54.175 86.7834 42.668 87.5499 35.0148C88.5511 25.0182 98.5334 0.0265689 121.499 0.0265689C144.967 -0.973091 157.449 26.5175 157.449 35.0148C157.449 41.5126 154.602 52.0095 151.455 55.5081C148.12 59.2154 148.394 59.4853 150.839 61.8951C151.031 62.0845 151.237 62.287 151.455 62.5055C151.664 62.7148 151.927 62.9629 152.226 63.2445C154.067 64.9814 157.258 67.992 157.446 71.0027C157.845 77.4005 153.286 79 150.956 79H122.499ZM111.515 61.006C113.912 69.0034 119.836 71.0027 122.499 71.0027C125.162 71.0027 130.986 70.003 133.483 61.006C135.873 52.391 138.642 45.3446 139.973 43.0121C140.58 41.5932 141.763 40.6676 142.953 39.7351C144.699 38.3681 146.463 36.9865 146.463 34.0151C146.463 30.0165 143.801 27.6839 142.469 27.0175C141.637 20.3531 136.478 7.02421 122.499 7.02421C108.52 7.02421 103.361 20.3531 102.529 27.0175C101.197 27.5173 98.5346 29.6166 98.5346 34.0151C98.5346 37.7336 100.59 39.1659 102.693 40.6312C103.699 41.3325 104.716 42.0414 105.524 43.0121C107.22 45.0496 107.994 48.0099 109.256 52.8336C109.851 55.1098 110.555 57.8011 111.515 61.006Z" fill="#11141B"/>
<path d="M126.493 26.5177C126.826 30.0165 128.682 39.0134 132.983 39.0134C139.474 39.0134 142.969 33.0155 138.475 32.0158C138.364 32.0158 138.248 32.018 138.128 32.0203C136.641 32.0488 134.592 32.088 133.483 28.0171C132.284 23.6186 129.655 22.8522 128.49 23.0188C126.373 23.0188 126.438 24.8395 126.482 26.068C126.488 26.23 126.493 26.3818 126.493 26.5177Z" fill="#11141B"/>
<path d="M106.523 32.0158C103.527 32.0158 102.529 39.0134 111.016 39.0134C113.512 39.0134 118.505 36.5143 118.505 26.5177C118.672 23.5187 117.007 23.0188 115.509 23.0188C114.012 23.0188 113.512 24.0185 111.515 28.0171C109.918 31.2161 107.521 32.0158 106.523 32.0158Z" fill="#11141B"/>
<path d="M122.498 63.0054C121 63.0054 118.504 60.6062 118.504 55.0081C118.241 53.6943 117.427 52.8225 116.714 52.0587C116.07 51.3696 115.508 50.7684 115.508 50.0097C115.508 48.4103 120.002 47.0108 122.498 47.0108C124.994 47.0108 128.988 47.9289 128.988 50.0097C128.988 50.9262 128.513 51.4157 127.975 51.9691C127.34 52.6231 126.618 53.3662 126.492 55.0081C125.993 61.5059 123.996 63.0054 122.498 63.0054Z" fill="#11141B"/>
<path d="M118.505 42.0124C119.801 37.171 123.383 30.3931 126.493 42.0124C126.904 43.5483 125.895 43.0077 124.692 42.3627C123.937 41.9582 123.105 41.5126 122.499 41.5126C121.893 41.5126 121.061 41.9582 120.306 42.3627C119.103 43.0077 118.094 43.5483 118.505 42.0124Z" fill="#11141B"/>
</g>
<g filter="url(#filter2_i_1057_8975)">
<path d="M198.17 69.7805H208.137V65.939C206.987 65.939 205.837 64.5561 205.837 63.6341H190.504C188.332 63.6341 183.911 62.2512 183.604 56.7195V51.3414H179.771C178.621 51.3414 177.471 50.4195 177.471 48.2683C177.471 46.117 179.004 45.1951 180.537 45.1951V35.9756C180.537 34.9512 181.304 32.9024 184.371 32.9024H188.97C192.037 32.9024 192.804 35.2073 192.804 35.9756V45.1951C193.826 45.1951 195.87 45.8097 195.87 48.2683C195.87 50.7268 193.826 51.3414 192.804 51.3414H189.737V54.4146C189.609 55.439 190.044 57.4878 192.804 57.4878H205.837C205.837 56.7195 206.987 55.1829 208.137 55.1829V51.3414H205.07C204.048 51.2134 202.003 50.4195 202.003 48.2683C202.003 47.1158 202.31 45.1951 205.07 45.1951V32.9024C205.07 30.5975 206.603 29.8292 211.203 29.8292C215.42 29.8292 217.336 30.5975 217.336 32.9024V45.1951C220.096 45.1951 220.403 47.1158 220.403 48.2683C220.403 50.7268 218.359 51.3414 217.336 51.3414H214.27V55.1829C215.036 55.1829 216.57 56.7195 216.57 57.4878H228.07C229.603 57.4878 232.669 56.8731 232.669 54.4146V51.3414H229.603C228.708 51.3414 226.536 50.9573 226.536 48.2683C226.536 45.7906 228.453 45.1951 229.603 45.1951V38.2805C229.603 36.7439 231.903 35.9756 235.736 35.9756C239.734 35.9756 241.869 36.7439 241.869 38.2805V45.1951C242.891 45.1951 244.936 45.8097 244.936 48.2683C244.936 50.7268 242.891 51.3414 241.869 51.3414H238.803V56.7195C238.803 62.5585 233.436 63.6341 230.369 63.6341H216.57C216.57 64.8634 215.42 65.939 214.27 65.939V69.7805H224.236C226.536 69.7805 229.603 70.5488 229.603 74.3902C229.603 78.6158 226.383 79 224.236 79H198.17C196.254 79 192.804 77.8475 192.804 74.3902C192.804 70.9958 195.87 69.7805 198.17 69.7805Z" fill="#11141B"/>
<path d="M183.604 25.9878C183.604 23.6829 185.137 20.6097 186.67 20.6097C188.204 20.6097 189.737 23.6829 189.737 25.9878C189.737 28.2927 188.97 29.8292 186.67 29.8292C184.371 29.8292 183.604 28.2927 183.604 25.9878Z" fill="#11141B"/>
<path d="M208.137 22.9146C208.137 20.6097 209.67 17.5366 211.203 17.5366C212.737 17.5366 214.27 20.6097 214.27 22.9146C214.27 24.8358 213.12 26.7561 211.203 26.7561C209.286 26.7561 208.137 24.8358 208.137 22.9146Z" fill="#11141B"/>
<path d="M232.669 29.8292C232.669 27.1402 234.203 23.6829 235.736 23.6829C237.269 23.6829 238.803 26.7561 238.803 29.8292C238.803 31.5265 237.43 32.9024 235.736 32.9024C234.042 32.9024 232.669 31.5265 232.669 29.8292Z" fill="#11141B"/>
</g>
<defs>
<filter id="filter0_i_1057_8975" x="0" y="17.5366" width="67.4648" height="61.4634" filterUnits="userSpaceOnUse" color-interpolation-filters="sRGB">
<feFlood flood-opacity="0" result="BackgroundImageFix"/>
<feBlend mode="normal" in="SourceGraphic" in2="BackgroundImageFix" result="shape"/>
<feColorMatrix in="SourceAlpha" type="matrix" values="0 0 0 0 0 0 0 0 0 0 0 0 0 0 0 0 0 0 127 0" result="hardAlpha"/>
<feOffset/>
<feGaussianBlur stdDeviation="5"/>
<feComposite in2="hardAlpha" operator="arithmetic" k2="-1" k3="1"/>
<feColorMatrix type="matrix" values="0 0 0 0 0.0196078 0 0 0 0 0.0196078 0 0 0 0 0.0196078 0 0 0 1 0"/>
<feBlend mode="normal" in2="shape" result="effect1_innerShadow_1057_8975"/>
</filter>
<filter id="filter1_i_1057_8975" x="87.4648" y="0" width="70.0059" height="79" filterUnits="userSpaceOnUse" color-interpolation-filters="sRGB">
<feFlood flood-opacity="0" result="BackgroundImageFix"/>
<feBlend mode="normal" in="SourceGraphic" in2="BackgroundImageFix" result="shape"/>
<feColorMatrix in="SourceAlpha" type="matrix" values="0 0 0 0 0 0 0 0 0 0 0 0 0 0 0 0 0 0 127 0" result="hardAlpha"/>
<feOffset/>
<feGaussianBlur stdDeviation="7"/>
<feComposite in2="hardAlpha" operator="arithmetic" k2="-1" k3="1"/>
<feColorMatrix type="matrix" values="0 0 0 0 0.0196078 0 0 0 0 0.0196078 0 0 0 0 0.0196078 0 0 0 1 0"/>
<feBlend mode="normal" in2="shape" result="effect1_innerShadow_1057_8975"/>
</filter>
<filter id="filter2_i_1057_8975" x="177.471" y="17.5366" width="67.4648" height="61.4634" filterUnits="userSpaceOnUse" color-interpolation-filters="sRGB">
<feFlood flood-opacity="0" result="BackgroundImageFix"/>
<feBlend mode="normal" in="SourceGraphic" in2="BackgroundImageFix" result="shape"/>
<feColorMatrix in="SourceAlpha" type="matrix" values="0 0 0 0 0 0 0 0 0 0 0 0 0 0 0 0 0 0 127 0" result="hardAlpha"/>
<feOffset/>
<feGaussianBlur stdDeviation="5"/>
<feComposite in2="hardAlpha" operator="arithmetic" k2="-1" k3="1"/>
<feColorMatrix type="matrix" values="0 0 0 0 0.0196078 0 0 0 0 0.0196078 0 0 0 0 0.0196078 0 0 0 1 0"/>
<feBlend mode="normal" in2="shape" result="effect1_innerShadow_1057_8975"/>
</filter>
</defs>
</svg>
