<svg width="32" height="34" viewBox="0 0 32 34" fill="none" xmlns="http://www.w3.org/2000/svg">
<g filter="url(#filter0_f_1038_7760)">
<path d="M3.39139 16.5328C4.58135 21.3861 11.7616 25.4811 14.9348 25.4811C15.7281 25.4811 15.9264 26.6944 15.7281 27.3011C15.5838 27.7425 15.291 28.3627 15.291 29.1209C15.3315 30.1827 18.5047 30.486 18.703 29.121C18.8914 27.8243 18.561 27.2943 18.108 26.6944C17.8976 26.4157 17.5898 26.0429 17.5691 25.7844C17.5548 25.6053 17.6783 25.4811 18.0676 25.4811C22.4712 25.4811 26.8749 20.9311 27.8261 16.5328C28.7779 12.1318 26.794 3.03441 15.291 3.03455C7.67526 3.15588 1.4577 8.64617 3.39139 16.5328Z" fill="#FF0000"/>
</g>
<mask id="mask0_1038_7760" style="mask-type:alpha" maskUnits="userSpaceOnUse" x="3" y="3" width="26" height="28">
<path d="M3.39139 16.5328C4.58135 21.3861 11.7616 25.4811 14.9348 25.4811C15.7281 25.4811 15.9264 26.6944 15.7281 27.3011C15.5838 27.7425 15.291 28.3627 15.291 29.1209C15.3315 30.1827 18.5047 30.486 18.703 29.121C18.8914 27.8243 18.561 27.2943 18.108 26.6944C17.8976 26.4157 17.5898 26.0429 17.5691 25.7844C17.5548 25.6053 17.6783 25.4811 18.0676 25.4811C22.4712 25.4811 26.8749 20.9311 27.8261 16.5328C28.7779 12.1318 26.794 3.03441 15.291 3.03455C7.67526 3.15588 1.4577 8.64617 3.39139 16.5328Z" fill="#FF0000"/>
</mask>
<g mask="url(#mask0_1038_7760)">
</g>
<mask id="mask1_1038_7760" style="mask-type:alpha" maskUnits="userSpaceOnUse" x="2" y="3" width="26" height="28">
<path d="M2.39139 16.5328C3.58135 21.3861 10.7616 25.4811 13.9348 25.4811C14.7281 25.4811 14.9264 26.6944 14.7281 27.3011C14.5838 27.7425 14.291 28.3627 14.291 29.1209C14.3315 30.1827 17.5047 30.486 17.703 29.121C17.8914 27.8243 17.561 27.2943 17.108 26.6944C16.8976 26.4157 16.5898 26.0429 16.5691 25.7844C16.5548 25.6053 16.6783 25.4811 17.0676 25.4811C21.4712 25.4811 25.8749 20.9311 26.8261 16.5328C27.7779 12.1318 25.794 3.03441 14.291 3.03455C6.67526 3.15588 0.457703 8.64617 2.39139 16.5328Z" fill="url(#paint0_linear_1038_7760)"/>
</mask>
<g mask="url(#mask1_1038_7760)">
<mask id="mask2_1038_7760" style="mask-type:alpha" maskUnits="userSpaceOnUse" x="2" y="3" width="26" height="28">
<path d="M2.39139 16.5328C3.58135 21.3861 10.7616 25.4811 13.9348 25.4811C14.7281 25.4811 14.9264 26.6944 14.7281 27.3011C14.5838 27.7425 14.291 28.3627 14.291 29.1209C14.3315 30.1827 17.5047 30.486 17.703 29.121C17.8914 27.8243 17.561 27.2943 17.108 26.6944C16.8976 26.4157 16.5898 26.0429 16.5691 25.7844C16.5548 25.6053 16.6783 25.4811 17.0676 25.4811C21.4712 25.4811 25.8749 20.9311 26.8261 16.5328C27.7779 12.1318 25.794 3.03441 14.291 3.03455C6.67526 3.15588 0.457703 8.64617 2.39139 16.5328Z" fill="white"/>
</mask>
<g mask="url(#mask2_1038_7760)">
<g filter="url(#filter1_f_1038_7760)">
<path d="M2.39139 16.5328C3.58135 21.3861 10.7616 25.4811 13.9348 25.4811C14.7281 25.4811 14.9264 26.6944 14.7281 27.3011C14.5838 27.7425 14.291 28.3627 14.291 29.1209C14.3315 30.1827 17.5047 30.486 17.703 29.121C17.8914 27.8243 17.561 27.2943 17.108 26.6944C16.8976 26.4157 16.5898 26.0429 16.5691 25.7844C16.5548 25.6053 16.6783 25.4811 17.0676 25.4811C21.4712 25.4811 25.8749 20.9311 26.8261 16.5328C27.7779 12.1318 25.794 3.03441 14.291 3.03455C6.67526 3.15588 0.457703 8.64617 2.39139 16.5328Z" fill="white"/>
</g>
<g clip-path="url(#paint1_angular_1038_7760_clip_path)" data-figma-skip-parse="true"><g transform="matrix(0.00237993 -0.00181999 0.00168517 0.00128869 14.7281 1.21456)"><foreignObject x="-15041.2" y="-15041.2" width="30082.4" height="30082.4"><div xmlns="http://www.w3.org/1999/xhtml" style="background:conic-gradient(from 90deg,rgba(235, 0, 23, 1) 0deg,rgba(186, 2, 20, 1) 108deg,rgba(127, 5, 17, 1) 216deg,rgba(235, 69, 69, 1) 288deg,rgba(229, 126, 126, 1) 360deg);height:100%;width:100%;opacity:1"></div></foreignObject></g></g><path d="M2.39139 16.5328C3.58135 21.3861 10.7616 25.4811 13.9348 25.4811C14.7281 25.4811 14.9264 26.6944 14.7281 27.3011C14.5838 27.7425 14.291 28.3627 14.291 29.1209C14.3315 30.1827 17.5047 30.486 17.703 29.121C17.8914 27.8243 17.561 27.2943 17.108 26.6944C16.8976 26.4157 16.5898 26.0429 16.5691 25.7844C16.5548 25.6053 16.6783 25.4811 17.0676 25.4811C21.4712 25.4811 25.8749 20.9311 26.8261 16.5328C27.7779 12.1318 25.794 3.03441 14.291 3.03455C6.67526 3.15588 0.457703 8.64617 2.39139 16.5328Z" data-figma-gradient-fill="{&#34;type&#34;:&#34;GRADIENT_ANGULAR&#34;,&#34;stops&#34;:[{&#34;color&#34;:{&#34;r&#34;:0.92156863212585449,&#34;g&#34;:0.0,&#34;b&#34;:0.090196080505847931,&#34;a&#34;:1.0},&#34;position&#34;:0.0},{&#34;color&#34;:{&#34;r&#34;:0.7294117808341980,&#34;g&#34;:0.0078431377187371254,&#34;b&#34;:0.078431375324726105,&#34;a&#34;:1.0},&#34;position&#34;:0.30000001192092896},{&#34;color&#34;:{&#34;r&#34;:0.49803921580314636,&#34;g&#34;:0.019607843831181526,&#34;b&#34;:0.066666670143604279,&#34;a&#34;:1.0},&#34;position&#34;:0.60000002384185791},{&#34;color&#34;:{&#34;r&#34;:0.92156863212585449,&#34;g&#34;:0.27058824896812439,&#34;b&#34;:0.27058824896812439,&#34;a&#34;:1.0},&#34;position&#34;:0.80000001192092896},{&#34;color&#34;:{&#34;r&#34;:0.89803922176361084,&#34;g&#34;:0.49411764740943909,&#34;b&#34;:0.49411764740943909,&#34;a&#34;:1.0},&#34;position&#34;:1.0}],&#34;stopsVar&#34;:[{&#34;color&#34;:{&#34;r&#34;:0.92156863212585449,&#34;g&#34;:0.0,&#34;b&#34;:0.090196080505847931,&#34;a&#34;:1.0},&#34;position&#34;:0.0},{&#34;color&#34;:{&#34;r&#34;:0.7294117808341980,&#34;g&#34;:0.0078431377187371254,&#34;b&#34;:0.078431375324726105,&#34;a&#34;:1.0},&#34;position&#34;:0.30000001192092896},{&#34;color&#34;:{&#34;r&#34;:0.49803921580314636,&#34;g&#34;:0.019607843831181526,&#34;b&#34;:0.066666670143604279,&#34;a&#34;:1.0},&#34;position&#34;:0.60000002384185791},{&#34;color&#34;:{&#34;r&#34;:0.92156863212585449,&#34;g&#34;:0.27058824896812439,&#34;b&#34;:0.27058824896812439,&#34;a&#34;:1.0},&#34;position&#34;:0.80000001192092896},{&#34;color&#34;:{&#34;r&#34;:0.89803922176361084,&#34;g&#34;:0.49411764740943909,&#34;b&#34;:0.49411764740943909,&#34;a&#34;:1.0},&#34;position&#34;:1.0}],&#34;transform&#34;:{&#34;m00&#34;:4.7598586082458496,&#34;m01&#34;:3.3703482151031494,&#34;m02&#34;:10.663007736206055,&#34;m10&#34;:-3.6399757862091064,&#34;m11&#34;:2.5773849487304688,&#34;m12&#34;:1.7458536624908447},&#34;opacity&#34;:1.0,&#34;blendMode&#34;:&#34;NORMAL&#34;,&#34;visible&#34;:true}" stroke="url(#paint2_linear_1038_7760)" stroke-opacity="0.3" stroke-width="0.303455"/>
<g filter="url(#filter2_f_1038_7760)">
<rect width="8.83304" height="71.1996" transform="matrix(0.688801 0.72495 -0.865748 0.50048 34.7227 -0.987305)" fill="url(#paint3_linear_1038_7760)"/>
<rect x="-0.00652659" y="0.0451994" width="8.75927" height="71.1258" transform="matrix(0.688801 0.72495 -0.865748 0.50048 34.7598 -0.959995)" stroke="url(#paint4_linear_1038_7760)" stroke-width="0.073769"/>
</g>
<g filter="url(#filter3_f_1038_7760)">
<path d="M14.2939 3.33826C19.9516 3.33896 23.2207 5.56932 24.9736 8.29724C26.7398 11.0459 26.9904 14.3371 26.5293 16.4691C26.0683 18.6003 24.765 20.7853 23.0322 22.4369C21.2977 24.0901 19.1666 25.1771 17.0674 25.1771C16.8528 25.1771 16.6492 25.2099 16.4951 25.3158C16.3122 25.4416 16.2524 25.6318 16.2666 25.809C16.2839 26.0232 16.4088 26.2385 16.5146 26.3988C16.6275 26.5698 16.7677 26.7469 16.8662 26.8773C17.0894 27.1729 17.2574 27.4203 17.3564 27.7367C17.4549 28.0512 17.492 28.4603 17.4023 29.0775C17.3723 29.2839 17.2323 29.45 16.9668 29.5697C16.697 29.6912 16.3318 29.7454 15.9521 29.7279C15.5728 29.7104 15.2102 29.6229 14.9512 29.4906C14.682 29.3531 14.5997 29.2113 14.5947 29.1117C14.597 28.4215 14.8591 27.8767 15.0166 27.3949C15.1376 27.0243 15.1338 26.5034 14.9922 26.0697C14.8517 25.64 14.5266 25.1771 13.9346 25.1771C13.1967 25.1771 12.1943 24.9367 11.0732 24.4838C9.95752 24.033 8.74525 23.3804 7.59277 22.5775C5.27548 20.9632 3.25544 18.7807 2.68652 16.4603C1.74418 12.6168 2.7872 9.3793 4.97949 7.08142C7.1792 4.77592 10.555 3.39828 14.2939 3.33826Z" stroke="url(#paint5_linear_1038_7760)" stroke-width="0.606909"/>
</g>
</g>
</g>
<defs>
<filter id="filter0_f_1038_7760" x="0.000609159" y="-1.19209e-06" width="31.0691" height="33.0691" filterUnits="userSpaceOnUse" color-interpolation-filters="sRGB">
<feFlood flood-opacity="0" result="BackgroundImageFix"/>
<feBlend mode="normal" in="SourceGraphic" in2="BackgroundImageFix" result="shape"/>
<feGaussianBlur stdDeviation="1.51727" result="effect1_foregroundBlur_1038_7760"/>
</filter>
<filter id="filter1_f_1038_7760" x="-24.9723" y="-23.9729" width="79.0149" height="81.0149" filterUnits="userSpaceOnUse" color-interpolation-filters="sRGB">
<feFlood flood-opacity="0" result="BackgroundImageFix"/>
<feBlend mode="normal" in="SourceGraphic" in2="BackgroundImageFix" result="shape"/>
<feGaussianBlur stdDeviation="13.5037" result="effect1_foregroundBlur_1038_7760"/>
</filter>
<clipPath id="paint1_angular_1038_7760_clip_path"><path d="M2.39139 16.5328C3.58135 21.3861 10.7616 25.4811 13.9348 25.4811C14.7281 25.4811 14.9264 26.6944 14.7281 27.3011C14.5838 27.7425 14.291 28.3627 14.291 29.1209C14.3315 30.1827 17.5047 30.486 17.703 29.121C17.8914 27.8243 17.561 27.2943 17.108 26.6944C16.8976 26.4157 16.5898 26.0429 16.5691 25.7844C16.5548 25.6053 16.6783 25.4811 17.0676 25.4811C21.4712 25.4811 25.8749 20.9311 26.8261 16.5328C27.7779 12.1318 25.794 3.03441 14.291 3.03455C6.67526 3.15588 0.457703 8.64617 2.39139 16.5328Z" stroke-width="0.303455"/></clipPath><filter id="filter2_f_1038_7760" x="-28.0983" y="-2.16761" width="70.0872" height="44.3981" filterUnits="userSpaceOnUse" color-interpolation-filters="sRGB">
<feFlood flood-opacity="0" result="BackgroundImageFix"/>
<feBlend mode="normal" in="SourceGraphic" in2="BackgroundImageFix" result="shape"/>
<feGaussianBlur stdDeviation="0.590152" result="effect1_foregroundBlur_1038_7760"/>
</filter>
<filter id="filter3_f_1038_7760" x="-0.999391" y="-1.19209e-06" width="31.0691" height="33.0691" filterUnits="userSpaceOnUse" color-interpolation-filters="sRGB">
<feFlood flood-opacity="0" result="BackgroundImageFix"/>
<feBlend mode="normal" in="SourceGraphic" in2="BackgroundImageFix" result="shape"/>
<feGaussianBlur stdDeviation="1.51727" result="effect1_foregroundBlur_1038_7760"/>
</filter>
<linearGradient id="paint0_linear_1038_7760" x1="20.2813" y1="0.911225" x2="8.3095" y2="33.0453" gradientUnits="userSpaceOnUse">
<stop stop-color="#FF7B7B"/>
<stop offset="1" stop-color="#E50000"/>
</linearGradient>
<linearGradient id="paint2_linear_1038_7760" x1="14.5352" y1="0.00123261" x2="14.5352" y2="32.1544" gradientUnits="userSpaceOnUse">
<stop stop-color="white"/>
<stop offset="0.5" stop-color="white"/>
<stop offset="1" stop-color="white"/>
</linearGradient>
<linearGradient id="paint3_linear_1038_7760" x1="4.41652" y1="0" x2="4.41652" y2="71.1996" gradientUnits="userSpaceOnUse">
<stop stop-color="#F26161"/>
<stop offset="1" stop-color="#F26161" stop-opacity="0"/>
</linearGradient>
<linearGradient id="paint4_linear_1038_7760" x1="11.6298" y1="36.848" x2="-2.19852" y2="36.5532" gradientUnits="userSpaceOnUse">
<stop stop-color="white" stop-opacity="0"/>
<stop offset="0.5" stop-color="white"/>
<stop offset="1" stop-color="white" stop-opacity="0"/>
</linearGradient>
<linearGradient id="paint5_linear_1038_7760" x1="14.5352" y1="0.00123261" x2="14.5352" y2="32.1544" gradientUnits="userSpaceOnUse">
<stop stop-color="white" stop-opacity="0"/>
<stop offset="0.5" stop-color="white"/>
<stop offset="1" stop-color="white" stop-opacity="0"/>
</linearGradient>
</defs>
</svg>
