<svg width="24" height="24" viewBox="0 0 24 24" fill="none" xmlns="http://www.w3.org/2000/svg">
<mask id="mask0_1114_8143" style="mask-type:alpha" maskUnits="userSpaceOnUse" x="2" y="2" width="20" height="20">
<path d="M2 14V10C2 5.58172 5.58172 2 10 2H14C18.4183 2 22 5.58172 22 10V14C22 18.4183 18.4183 22 14 22H10C5.58172 22 2 18.4183 2 14Z" fill="url(#paint0_linear_1114_8143)"/>
</mask>
<g mask="url(#mask0_1114_8143)">
<mask id="mask1_1114_8143" style="mask-type:alpha" maskUnits="userSpaceOnUse" x="2" y="2" width="20" height="20">
<path d="M2 14V10C2 5.58172 5.58172 2 10 2H14C18.4183 2 22 5.58172 22 10V14C22 18.4183 18.4183 22 14 22H10C5.58172 22 2 18.4183 2 14Z" fill="white"/>
</mask>
<g mask="url(#mask1_1114_8143)">
<g filter="url(#filter0_f_1114_8143)">
<path d="M2 14V10C2 5.58172 5.58172 2 10 2H14C18.4183 2 22 5.58172 22 10V14C22 18.4183 18.4183 22 14 22H10C5.58172 22 2 18.4183 2 14Z" fill="white"/>
</g>
<g clip-path="url(#paint1_angular_1114_8143_clip_path)" data-figma-skip-parse="true"><g transform="matrix(0.0095 -0.002 0.002 0.0095 12.5 1)"><foreignObject x="-2440.32" y="-2440.32" width="4880.64" height="4880.64"><div xmlns="http://www.w3.org/1999/xhtml" style="background:conic-gradient(from 90deg,rgba(235, 0, 23, 1) 0deg,rgba(186, 2, 20, 1) 108deg,rgba(127, 5, 17, 1) 216deg,rgba(235, 69, 69, 1) 288deg,rgba(229, 126, 126, 1) 360deg);height:100%;width:100%;opacity:1"></div></foreignObject></g></g><path d="M2 14V10C2 5.58172 5.58172 2 10 2H14C18.4183 2 22 5.58172 22 10V14C22 18.4183 18.4183 22 14 22H10C5.58172 22 2 18.4183 2 14Z" data-figma-gradient-fill="{&#34;type&#34;:&#34;GRADIENT_ANGULAR&#34;,&#34;stops&#34;:[{&#34;color&#34;:{&#34;r&#34;:0.92156863212585449,&#34;g&#34;:0.0,&#34;b&#34;:0.090196080505847931,&#34;a&#34;:1.0},&#34;position&#34;:0.0},{&#34;color&#34;:{&#34;r&#34;:0.7294117808341980,&#34;g&#34;:0.0078431377187371254,&#34;b&#34;:0.078431375324726105,&#34;a&#34;:1.0},&#34;position&#34;:0.30000001192092896},{&#34;color&#34;:{&#34;r&#34;:0.49803921580314636,&#34;g&#34;:0.019607843831181526,&#34;b&#34;:0.066666670143604279,&#34;a&#34;:1.0},&#34;position&#34;:0.60000002384185791},{&#34;color&#34;:{&#34;r&#34;:0.92156863212585449,&#34;g&#34;:0.27058824896812439,&#34;b&#34;:0.27058824896812439,&#34;a&#34;:1.0},&#34;position&#34;:0.80000001192092896},{&#34;color&#34;:{&#34;r&#34;:0.89803922176361084,&#34;g&#34;:0.49411764740943909,&#34;b&#34;:0.49411764740943909,&#34;a&#34;:1.0},&#34;position&#34;:1.0}],&#34;stopsVar&#34;:[{&#34;color&#34;:{&#34;r&#34;:0.92156863212585449,&#34;g&#34;:0.0,&#34;b&#34;:0.090196080505847931,&#34;a&#34;:1.0},&#34;position&#34;:0.0},{&#34;color&#34;:{&#34;r&#34;:0.7294117808341980,&#34;g&#34;:0.0078431377187371254,&#34;b&#34;:0.078431375324726105,&#34;a&#34;:1.0},&#34;position&#34;:0.30000001192092896},{&#34;color&#34;:{&#34;r&#34;:0.49803921580314636,&#34;g&#34;:0.019607843831181526,&#34;b&#34;:0.066666670143604279,&#34;a&#34;:1.0},&#34;position&#34;:0.60000002384185791},{&#34;color&#34;:{&#34;r&#34;:0.92156863212585449,&#34;g&#34;:0.27058824896812439,&#34;b&#34;:0.27058824896812439,&#34;a&#34;:1.0},&#34;position&#34;:0.80000001192092896},{&#34;color&#34;:{&#34;r&#34;:0.89803922176361084,&#34;g&#34;:0.49411764740943909,&#34;b&#34;:0.49411764740943909,&#34;a&#34;:1.0},&#34;position&#34;:1.0}],&#34;transform&#34;:{&#34;m00&#34;:19.0,&#34;m01&#34;:4.0000009536743164,&#34;m02&#34;:0.99999964237213135,&#34;m10&#34;:-4.0000009536743164,&#34;m11&#34;:19.0,&#34;m12&#34;:-6.4999985694885254},&#34;opacity&#34;:1.0,&#34;blendMode&#34;:&#34;NORMAL&#34;,&#34;visible&#34;:true}" stroke="url(#paint2_linear_1114_8143)" stroke-opacity="0.3"/>
<g filter="url(#filter1_f_1114_8143)">
<rect x="22.8457" y="-0.621094" width="7.23237" height="98.8059" transform="rotate(53.457 22.8457 -0.621094)" fill="url(#paint3_linear_1114_8143)"/>
<rect x="22.8328" y="-0.534242" width="7.10819" height="98.6817" transform="rotate(53.457 22.8328 -0.534242)" stroke="url(#paint4_linear_1114_8143)" stroke-width="0.124178"/>
</g>
<g filter="url(#filter2_f_1114_8143)">
<path d="M10 2.5H14C18.1421 2.5 21.5 5.85786 21.5 10V14C21.5 18.1421 18.1421 21.5 14 21.5H10C5.85786 21.5 2.5 18.1421 2.5 14V10C2.5 5.85786 5.85786 2.5 10 2.5Z" stroke="url(#paint5_linear_1114_8143)"/>
</g>
</g>
</g>
<defs>
<filter id="filter0_f_1114_8143" x="-18" y="-18" width="60" height="60" filterUnits="userSpaceOnUse" color-interpolation-filters="sRGB">
<feFlood flood-opacity="0" result="BackgroundImageFix"/>
<feBlend mode="normal" in="SourceGraphic" in2="BackgroundImageFix" result="shape"/>
<feGaussianBlur stdDeviation="10" result="effect1_foregroundBlur_1114_8143"/>
</filter>
<clipPath id="paint1_angular_1114_8143_clip_path"><path d="M2 14V10C2 5.58172 5.58172 2 10 2H14C18.4183 2 22 5.58172 22 10V14C22 18.4183 18.4183 22 14 22H10C5.58172 22 2 18.4183 2 14Z"/></clipPath><filter id="filter1_f_1114_8143" x="-58.523" y="-2.60794" width="87.6622" height="68.6163" filterUnits="userSpaceOnUse" color-interpolation-filters="sRGB">
<feFlood flood-opacity="0" result="BackgroundImageFix"/>
<feBlend mode="normal" in="SourceGraphic" in2="BackgroundImageFix" result="shape"/>
<feGaussianBlur stdDeviation="0.993422" result="effect1_foregroundBlur_1114_8143"/>
</filter>
<filter id="filter2_f_1114_8143" x="-8" y="-8" width="40" height="40" filterUnits="userSpaceOnUse" color-interpolation-filters="sRGB">
<feFlood flood-opacity="0" result="BackgroundImageFix"/>
<feBlend mode="normal" in="SourceGraphic" in2="BackgroundImageFix" result="shape"/>
<feGaussianBlur stdDeviation="5" result="effect1_foregroundBlur_1114_8143"/>
</filter>
<linearGradient id="paint0_linear_1114_8143" x1="19.5" y1="0.499999" x2="4" y2="22.5" gradientUnits="userSpaceOnUse">
<stop stop-color="#FF7B7B"/>
<stop offset="1" stop-color="#E50000"/>
</linearGradient>
<linearGradient id="paint2_linear_1114_8143" x1="12" y1="-4" x2="12" y2="25" gradientUnits="userSpaceOnUse">
<stop stop-color="white"/>
<stop offset="0.5" stop-color="white"/>
<stop offset="1" stop-color="white"/>
</linearGradient>
<linearGradient id="paint3_linear_1114_8143" x1="26.4619" y1="-0.621094" x2="26.4619" y2="98.1848" gradientUnits="userSpaceOnUse">
<stop stop-color="#F26161"/>
<stop offset="1" stop-color="#F26161" stop-opacity="0"/>
</linearGradient>
<linearGradient id="paint4_linear_1114_8143" x1="32.3681" y1="50.5141" x2="21.0422" y2="50.3716" gradientUnits="userSpaceOnUse">
<stop stop-color="white" stop-opacity="0"/>
<stop offset="0.5" stop-color="white"/>
<stop offset="1" stop-color="white" stop-opacity="0"/>
</linearGradient>
<linearGradient id="paint5_linear_1114_8143" x1="12" y1="-4" x2="12" y2="25" gradientUnits="userSpaceOnUse">
<stop stop-color="white" stop-opacity="0"/>
<stop offset="0.5" stop-color="white"/>
<stop offset="1" stop-color="white" stop-opacity="0"/>
</linearGradient>
</defs>
</svg>
